<?xml version="1.0" encoding="UTF-8"?>
<svg version="1.2" baseProfile="tiny-ps" xmlns="http://www.w3.org/2000/svg" viewBox="0 0 1000 1000">
  <title>Logo</title>
  <defs>
    <style>
      .logo-path {
        fill: var(--vp-c-text-1, #ffffff);
        transition: fill 0.3s ease;
      }
    </style>
  </defs>
  <g transform="translate(182.91, 42.77) scale(0.484734)">
    <path class="logo-path" d="M430.07,941.85H429L864.75,506.11a50.63,50.63,0,0,0,14.81-35.77V287.8A50.63,50.63,0,0,0,864.75,252L627.63,14.92c-31.87-31.87-86.35-9.3-86.35,35.76V357.42a50.58,50.58,0,0,1-14.82,35.77L14.82,904.83a50.59,50.59,0,0,0,0,71.55L279.3,1240.72a50.59,50.59,0,0,0,71.53,0L504.1,1087.42a50.59,50.59,0,0,0,0-71.54Z"/>
    <path class="logo-path" d="M877.49,944.67h1.07L442.82,1380.42A50.55,50.55,0,0,0,428,1416.18v182.54a50.58,50.58,0,0,0,14.82,35.77l237.11,237.12c31.87,31.86,86.35,9.29,86.35-35.77V1529.1a50.59,50.59,0,0,1,14.82-35.77l511.65-511.64a50.6,50.6,0,0,0,0-71.55L1028.26,645.81a50.57,50.57,0,0,0-71.52,0L803.46,799.11a50.58,50.58,0,0,0,0,71.53Z"/>
  </g>
</svg>
